# xmcd CD database file
#
# Track frame offsets:
#	150
#	14455
#	34980
#	55072
#	75110
#	97067
#	120140
#	138190
#	154942
#	171500
#
# Disc length: 2438 seconds
#
# Revision: 4
# Processed by: cddbd v1.5.2PL0 Copyright (c) Steve Scherf et al.
# Submitted via: CDex 1.51
#
DISCID=7409840a
DTITLE=Magic Sam - Magic Sam Live (Disc-2: At The Ann Arbor Blues Festival, August, 1969 (1969))
DYEAR=1900
DGENRE=Blues
TTITLE0=San-Ho-Zay
TTITLE1=I Need You So Bad
TTITLE2=You Don't Love Me
TTITLE3=Strange Things Happening
TTITLE4=I Feel So Good (I Wanna Boogie)
TTITLE5=All Your Love
TTITLE6=Sweet Home Chicago
TTITLE7=I Got Papers On You, Baby
TTITLE8=Looking Good
TTITLE9=Looking Good (encore)
EXTD=
EXTT0=
EXTT1=
EXTT2=
EXTT3=
EXTT4=
EXTT5=
EXTT6=
EXTT7=
EXTT8=
EXTT9=
PLAYORDER=
